<?xml version="1.0" encoding="utf-8"?>
<!-- Generator: Adobe Illustrator 27.0.0, SVG Export Plug-In . SVG Version: 6.00 Build 0)  -->
<svg version="1.1" id="Layer_1" xmlns="http://www.w3.org/2000/svg" xmlns:xlink="http://www.w3.org/1999/xlink" x="0px" y="0px"
	 viewBox="0 0 673.07 673.07" style="enable-background:new 0 0 673.07 673.07;" xml:space="preserve">
<style type="text/css">
	.st0{fill:#FFFFFF;}
	.st1{fill:#5AF7DC;}
</style>
<g>
	<path class="st0" d="M176.15,188.05c-3.99-5.17-10.8-5.49-15.97-1.49c-5.17,3.99-5.49,10.8-1.49,15.97l37.79,42.89
		c3.99,5.17,10.8,5.49,15.97,1.49c5.17-3.99,5.49-10.8,1.49-15.97L176.15,188.05z"/>
	<path class="st0" d="M286.04,144.59c-5.69-0.45-11.84,4.78-12.29,10.48l-3.42,56.8c-0.45,5.69,4.78,11.84,10.48,12.29
		c6.8,0.32,11.84-4.78,12.29-10.48l3.42-56.8C296.85,150.07,292.85,144.91,286.04,144.59L286.04,144.59z"/>
	<path class="st0" d="M228.79,146.85c-1.77-5.43-7.73-8.11-14.27-6.21c-5.43,1.77-9.22,7.86-7.32,14.4l18.82,54.16
		c1.77,5.43,8.97,9.09,14.4,7.32c5.43-1.77,9.22-7.86,7.32-14.4L228.79,146.85z"/>
	<path class="st1" d="M595.13,277.35l-17.92-85.12c-1.12-6.72-7.84-10.08-13.44-8.96l-305.75,64.96
		c-61.6,16.8-104.16,69.44-107.52,131.04c-10.08-5.6-22.4-7.84-34.72-5.6c-25.76,5.6-42.56,31.36-36.96,58.24
		c5.6,24.64,30.24,43.68,58.24,38.08c11.2-2.24,21.28-8.96,28-17.92c30.24,60.48,98.56,94.08,166.88,76.16
		c80.64-21.28,125.44-107.52,104.16-175.84c-2.24-12.32,3.36-24.64,17.92-28l132.16-34.72
		C592.89,288.55,596.25,282.95,595.13,277.35L595.13,277.35z M132.57,447.59c-14.56,3.36-29.12-6.72-32.48-21.28
		c-3.36-13.44,5.6-29.12,21.28-32.48c16.8-3.36,29.12,7.84,32.48,21.28C156.09,430.79,147.12,445.35,132.57,447.59z M297.21,472.23
		c-39.2,0-73.92-28-82.88-67.2c-11.2-52.64,29.12-101.92,82.88-101.92c39.2,0,73.92,28,81.76,67.2
		C391.28,422.95,350.96,472.23,297.21,472.23z M298.33,325.51c-39.2,0-68.32,35.84-60.48,75.04c5.6,28,31.36,49.28,60.48,49.28
		c39.2,0,68.32-35.84,60.48-75.04C352.08,346.79,326.33,325.51,298.33,325.51z"/>
</g>
</svg>
