<?xml version="1.0" encoding="utf-8"?>
<!-- Generator: Adobe Illustrator 27.0.0, SVG Export Plug-In . SVG Version: 6.00 Build 0)  -->
<svg version="1.1" id="Layer_1" xmlns="http://www.w3.org/2000/svg" xmlns:xlink="http://www.w3.org/1999/xlink" x="0px" y="0px"
	 viewBox="0 0 700 700" style="enable-background:new 0 0 700 700;" xml:space="preserve">
<style type="text/css">
	.st0{fill:#FFFFFF;}
	.st1{fill:#5AF7DC;}
</style>
<g>
	<path class="st0" d="M239.25,323.97c5.24,23.98,28.59,101.89,110.71,101.89c82.13,0,105.5-77.91,110.75-101.89
		c3.82-1.04,7.45-3.07,10.78-6.06c10.57-9.55,17.39-28.78,17.39-49.04c0-11.66-5.01-18.18-9.21-21.59
		c-1.22-0.98-2.48-1.77-3.82-2.48c2.95-61.19-7.96-106.27-35.86-112.83c0,0,1.22-53.49-90.02-53.49
		c-130.52,0-132.21,95.01-126.29,166.59c-1.15,0.66-2.31,1.32-3.38,2.21c-4.21,3.41-9.21,9.95-9.21,21.59
		c0,20.25,6.82,39.49,17.4,49.04C231.79,320.91,235.44,322.94,239.25,323.97L239.25,323.97z M231.34,260.95
		c0.14-0.1,0.34-0.12,0.44-0.2c3.68,0.75,8.74,2.17,15.66,4.58c-0.19-8.37,1.56-15.92,4.09-22.98
		c58.65-5.68,109.23-31.89,139.46-51.3c6.12,16.5,21.35,34.89,56.22,47.96c0.04,0.02,0.07,0.02,0.1,0.04
		c3.31,7.91,5.39,16.61,5.21,26.28c6.89-2.41,11.96-3.84,15.64-4.58c0.14,0.07,0.3,0.1,0.39,0.19c0.66,0.54,2.71,2.22,2.71,7.94
		c0,14.78-4.87,29.92-11.57,35.99c-2.89,2.55-4.94,2.36-5.53,2.29l-8.48-0.87l-1.12,8.47c-0.49,3.82-13.25,93.52-94.61,93.52
		c-81.06,0-94.08-89.7-94.59-93.54l-1.12-8.45l-8.48,0.87c-0.7,0.09-2.65,0.29-5.5-2.29c-6.72-6.07-11.6-21.21-11.6-35.99
		C228.67,263.17,230.69,261.49,231.34,260.95L231.34,260.95z"/>
	<path class="st1" d="M443.45,406.37l-3.94-0.3l-2.85,2.6c-29.87,29.32-61.87,45.27-83.54,45.27l-3.14,0l-3.12,0.02
		c-21.67,0-53.69-15.95-83.52-45.27l-2.85-2.6l-3.97,0.3c-1.46,0.1-136.3,16-138.62,206.89v8.23H582.1v-8.23
		c-2.33-190.89-137.18-206.81-138.64-206.91L443.45,406.37z M157.36,605.07h-21.81c0.98-41.65,9.61-73.27,21.81-97.7L157.36,605.07z
		 M209.27,605.07h-30.09V474.39c9.71-11.03,20.02-19.45,30.09-25.88L209.27,605.07z M261.18,605.07h-30.07v-168.1
		c3.32-1.39,6.5-2.58,9.47-3.6c7.21,6.46,14.09,12.15,20.62,17.12v154.58L261.18,605.07z M313.11,605.07h-30.07v-139.7
		c11.37,6.86,21.41,11.47,30.07,14.49V605.07z M365.03,605.07h-30.1V485.16c4.6,0.56,8.38,0.7,11.25,0.7h2.55h2.51h2.55
		c2.87,0,6.64-0.14,11.25-0.7L365.03,605.07z M416.96,605.07h-30.09V479.85c8.66-3.02,18.7-7.62,30.09-14.49V605.07z M468.87,605.07
		h-30.09V450.49c6.57-4.97,13.42-10.66,20.62-17.12c2.99,1.02,6.16,2.21,9.48,3.6v168.1L468.87,605.07z M520.8,605.07h-30.09V448.49
		c10.08,6.43,20.38,14.85,30.09,25.88V605.07z M542.62,605.07v-97.7c12.2,24.4,20.82,56.05,21.8,97.7H542.62z"/>
</g>
</svg>
