<?xml version="1.0" encoding="utf-8"?>
<!-- Generator: Adobe Illustrator 27.0.0, SVG Export Plug-In . SVG Version: 6.00 Build 0)  -->
<svg version="1.1" id="Layer_1" xmlns="http://www.w3.org/2000/svg" xmlns:xlink="http://www.w3.org/1999/xlink" x="0px" y="0px"
	 viewBox="0 0 94.41 124.96" style="enable-background:new 0 0 94.41 124.96;" xml:space="preserve">
<style type="text/css">
	.st0{fill:#FFFFFF;}
</style>
<g>
	<path class="st0" d="M84.27,7.95H34.85c-0.1,0-0.18,0.04-0.27,0.05c-0.1,0.01-0.19,0.03-0.28,0.06c-0.36,0.1-0.69,0.25-0.94,0.5
		c0,0-0.01,0-0.01,0.01L8.64,33.28c-0.01,0.01-0.01,0.01-0.01,0.02c-0.25,0.26-0.4,0.59-0.5,0.94c-0.02,0.09-0.04,0.17-0.05,0.27
		c-0.01,0.09-0.06,0.18-0.06,0.27v80.09c0,1.18,0.95,2.13,2.13,2.13h74.12c1.18,0,2.13-0.95,2.13-2.13V10.08
		C86.4,8.91,85.44,7.95,84.27,7.95z M82.14,61.28H61.48c-1.04-6.97-7.01-12.36-14.27-12.36s-13.23,5.38-14.27,12.36H12.28V36.92
		h22.58c1.18,0,2.13-0.95,2.13-2.13V12.21h45.16V61.28z M37.21,61.28c0.98-4.62,5.09-8.1,10-8.1c4.9,0,9.01,3.48,9.99,8.1H37.21z
		 M57.2,65.54c-0.98,4.62-5.09,8.09-9.99,8.09c-4.91,0-9.01-3.48-10-8.09H57.2z M32.72,15.22v17.44H15.29L32.72,15.22z
		 M12.28,112.75v-47.2h20.66c1.04,6.97,7.01,12.35,14.27,12.35s13.23-5.38,14.27-12.35h20.66v47.2H12.28z"/>
</g>
</svg>
