<?xml version="1.0" encoding="UTF-8"?>
<svg id="Layer_1" data-name="Layer 1" xmlns="http://www.w3.org/2000/svg" viewBox="0 0 152.27 152.28">
  <defs>
    <style>
      .cls-1 {
        fill: #00032c;
      }

      .cls-2 {
        fill: #5af7dc;
      }
    </style>
  </defs>
  <rect class="cls-1" width="152.28" height="152.28" rx="40" ry="40"/>
  <path class="cls-2" d="M109.17,26.54h-44.05c-.09,0-.16,.04-.24,.04-.09,0-.17,.03-.25,.05-.32,.09-.61,.22-.84,.45,0,0,0,0,0,0l-22.02,22.02s0,0,0,.02c-.22,.23-.36,.53-.45,.84-.02,.08-.04,.15-.04,.24,0,.08-.05,.16-.05,.24V121.84c0,1.05,.85,1.9,1.9,1.9H109.17c1.05,0,1.9-.85,1.9-1.9V28.44c0-1.04-.86-1.9-1.9-1.9Zm-1.9,47.53h-18.41c-.93-6.21-6.25-11.02-12.72-11.02s-11.79,4.8-12.72,11.02h-18.41v-21.71h20.13c1.05,0,1.9-.85,1.9-1.9V30.34h40.25v43.74h0Zm-40.05,0c.87-4.12,4.54-7.22,8.91-7.22s8.03,3.1,8.9,7.22h-17.82Zm17.82,3.8c-.87,4.12-4.54,7.21-8.9,7.21s-8.03-3.1-8.91-7.21c0,0,17.82,0,17.82,0Zm-21.82-44.85v15.54h-15.54l15.54-15.54Zm-18.22,86.93v-42.07h18.41c.93,6.21,6.25,11.01,12.72,11.01s11.79-4.8,12.72-11.01h18.41v42.07H45Z"/>
</svg>